<svg xmlns="http://www.w3.org/2000/svg" xmlns:xlink="http://www.w3.org/1999/xlink" width="237" height="100" viewBox="0 0 237 100">
  <defs>
    <clipPath id="clip-path">
      <path id="Path_10" data-name="Path 10" d="M9.585,0a.6.6,0,0,0-.533.336L6.554,5.4a.6.6,0,0,1-.453.33L.516,6.538a.6.6,0,0,0-.516.6v0a.591.591,0,0,0,.183.428L4.224,11.5a.6.6,0,0,1,.173.533L3.443,17.6a.6.6,0,0,0,.874.635l4.995-2.626a.6.6,0,0,1,.56,0l5,2.626a.6.6,0,0,0,.874-.635l-.954-5.562a.6.6,0,0,1,.173-.533L19,7.566a.6.6,0,0,0-.334-1.028l-5.585-.811a.6.6,0,0,1-.453-.33L10.133.337A.6.6,0,0,0,9.6,0Z" transform="translate(0 -0.001)" fill="#fcbf02"/>
    </clipPath>
    <clipPath id="clip-path-2">
      <path id="Path_8" data-name="Path 8" d="M119.522,0a.6.6,0,0,0-.533.336l-2.5,5.061a.6.6,0,0,1-.454.33l-5.585.811a.6.6,0,0,0-.334,1.028l4.041,3.939a.6.6,0,0,1,.173.533L113.38,17.6a.6.6,0,0,0,.874.635l4.995-2.626a.6.6,0,0,1,.561,0l4.995,2.626a.6.6,0,0,0,.874-.635l-.954-5.562a.6.6,0,0,1,.173-.533l4.041-3.939a.6.6,0,0,0-.333-1.028l-5.585-.811a.6.6,0,0,1-.454-.33L120.07.337A.6.6,0,0,0,119.537,0Z" transform="translate(-109.937 -0.001)" fill="#fcbf02"/>
    </clipPath>
    <clipPath id="clip-path-3">
      <path id="Path_9" data-name="Path 9" d="M229.459,0a.6.6,0,0,0-.533.336l-2.5,5.061a.6.6,0,0,1-.454.33l-5.585.811a.6.6,0,0,0-.334,1.028L224.1,11.5a.6.6,0,0,1,.173.533l-.954,5.562a.6.6,0,0,0,.874.635l5-2.626a.6.6,0,0,1,.561,0l4.995,2.626a.6.6,0,0,0,.874-.635l-.954-5.562a.6.6,0,0,1,.173-.533l4.041-3.939a.6.6,0,0,0-.334-1.028l-5.585-.811a.6.6,0,0,1-.453-.33l-2.5-5.061A.6.6,0,0,0,229.474,0Z" transform="translate(-219.874 -0.001)" fill="#fcbf02"/>
    </clipPath>
    <clipPath id="clip-path-4">
      <path id="Path_6" data-name="Path 6" d="M339.4,0a.6.6,0,0,0-.533.336l-2.5,5.061a.6.6,0,0,1-.454.33l-5.585.811a.6.6,0,0,0-.334,1.028l4.041,3.939a.6.6,0,0,1,.173.533l-.954,5.562a.6.6,0,0,0,.874.635l4.995-2.626a.6.6,0,0,1,.561,0l4.995,2.626a.6.6,0,0,0,.874-.635l-.954-5.562a.6.6,0,0,1,.173-.533l4.041-3.939a.6.6,0,0,0-.334-1.028l-5.8-.842a.193.193,0,0,1-.145-.106L339.944.337A.6.6,0,0,0,339.411,0Z" transform="translate(-329.811 -0.001)" fill="#fcbf02"/>
    </clipPath>
    <clipPath id="clip-path-5">
      <path id="Path_7" data-name="Path 7" d="M449.333,0a.6.6,0,0,0-.533.336L446.3,5.4a.6.6,0,0,1-.453.33l-5.585.811a.6.6,0,0,0-.334,1.028l4.041,3.939a.6.6,0,0,1,.173.533l-.954,5.562a.6.6,0,0,0,.874.635l4.995-2.626a.6.6,0,0,1,.561,0l4.995,2.626a.6.6,0,0,0,.874-.635l-.954-5.562a.6.6,0,0,1,.173-.533l4.041-3.939a.6.6,0,0,0-.334-1.028l-5.585-.811a.6.6,0,0,1-.453-.33l-2.5-5.061A.6.6,0,0,0,449.348,0Z" transform="translate(-439.748 -0.001)" fill="#fcbf02"/>
    </clipPath>
    <clipPath id="clip-path-6">
      <rect id="Rectangle_38" data-name="Rectangle 38" width="100.126" height="22.798" fill="none"/>
    </clipPath>
  </defs>
  <g id="Group_28" data-name="Group 28" transform="translate(-580 -432)">
    <g id="Group_26" data-name="Group 26" transform="translate(-391 1)">
      <g id="Rectangle_37" data-name="Rectangle 37" transform="translate(971 431)" fill="#484848" stroke="rgba(236,168,150,0.34)" stroke-width="1">
        <rect width="237" height="100" rx="5" stroke="none"/>
        <rect x="0.5" y="0.5" width="236" height="99" rx="4.5" fill="none"/>
      </g>
      <text id="_5.0" data-name="5.0" transform="translate(1013 506)" fill="#fff" font-size="22" font-family="Inter" font-weight="600"><tspan x="0" y="0">5.0</tspan></text>
      <text id="Rating" transform="translate(1118 471)" fill="rgba(255,255,255,0.8)" font-size="16" font-family="Inter"><tspan x="0" y="0">Rating</tspan></text>
      <g id="Group_14" data-name="Group 14" transform="translate(1055.459 489.167)" clip-path="url(#clip-path)">
        <rect id="Rectangle_36" data-name="Rectangle 36" width="19.39" height="18.498" transform="matrix(1, -0.002, 0.002, 1, -0.03, 0)" fill="#fcbf02"/>
      </g>
      <g id="Group_12" data-name="Group 12" transform="translate(1079.822 489.167)" clip-path="url(#clip-path-2)">
        <rect id="Rectangle_34" data-name="Rectangle 34" width="19.565" height="18.498" transform="translate(-0.205 0) rotate(-0.093)" fill="#fcbf02"/>
      </g>
      <g id="Group_13" data-name="Group 13" transform="translate(1104.185 489.167)" clip-path="url(#clip-path-3)">
        <rect id="Rectangle_35" data-name="Rectangle 35" width="19.565" height="18.498" transform="translate(-0.205 0) rotate(-0.093)" fill="#fcbf02"/>
      </g>
      <g id="Group_10" data-name="Group 10" transform="translate(1128.548 489.167)" clip-path="url(#clip-path-4)">
        <rect id="Rectangle_32" data-name="Rectangle 32" width="19.565" height="18.498" transform="translate(-0.205 0) rotate(-0.093)" fill="#fcbf02"/>
      </g>
      <g id="Group_11" data-name="Group 11" transform="translate(1152.912 489.167)" clip-path="url(#clip-path-5)">
        <rect id="Rectangle_33" data-name="Rectangle 33" width="19.565" height="18.498" transform="translate(-0.205 0) rotate(-0.093)" fill="#fcbf02"/>
      </g>
      <g id="Group_19" data-name="Group 19" transform="translate(1013.095 454.94)">
        <g id="Group_18" data-name="Group 18" clip-path="url(#clip-path-6)">
          <path id="Path_11" data-name="Path 11" d="M7.727,103.141a4.542,4.542,0,0,1,2.138.131c-.16.307-.2.319-.457.128a.44.44,0,0,0-.484,0,8.217,8.217,0,0,0,.878.453c.486.129.483.141.617-.327a.459.459,0,0,1,.218.119c-.03.047-.057.1-.091.142-.074.1-.08.189.023.263a.167.167,0,0,0,.239-.049,1.524,1.524,0,0,0,.113-.166,1.163,1.163,0,0,1,.37.3c-.125.123-.287.271-.192.442.12.216.347.149.544.079a.673.673,0,0,1,.1-.019.274.274,0,0,1,.132.188c-.135.5.026.819.461.92a2.118,2.118,0,0,1,.157,1.389c-.108.29-.034.571-.116.86a3.85,3.85,0,0,1-1.905,2.331,3.688,3.688,0,0,1-1.949.518,4.143,4.143,0,0,1-2.265-.783,2.338,2.338,0,0,1-.8-.872.275.275,0,0,0,.219-.062c.07-.072.235-.1.152-.249-.075-.136-.2-.114-.323-.061a.187.187,0,0,0-.133.174.789.789,0,0,1-.272-.491.137.137,0,0,1,.137-.068c.431.159.551.086.552-.34q0-1.151,0-2.3a.884.884,0,0,1,.088-.5c.036-.058.07-.129.012-.189a.156.156,0,0,0-.22-.007c-.148.131-.322.094-.491.1a5.84,5.84,0,0,1,.553-.823c.046.006.1.015.11.063.041.272.129.183.269.057.182-.165.455-.228.529-.514a.151.151,0,0,1,.206-.075c.18.079.272-.021.365-.151a.671.671,0,0,1,.318-.251.294.294,0,0,0,.194-.353m.28.212c-.016.009-.043.016-.047.029a.056.056,0,0,0,.019.051.04.04,0,0,0,.061-.038c0-.013-.022-.028-.034-.042" transform="translate(-4.753 -95.958)" fill="#4c9dda"/>
          <path id="Path_12" data-name="Path 12" d="M1345.007,104.834c.073.086.1.2.183.284a.5.5,0,0,1,.108.612c-.393.027-.411.043-.412.41q0,.8,0,1.6c0,.149-.017.308.2.332a3.5,3.5,0,0,1-1.007,1.457,4.327,4.327,0,0,1-2.126.927,3.323,3.323,0,0,1-1.6-.172,4.114,4.114,0,0,1-1.711-1.118.668.668,0,0,1-.19-.319c.025-.023.067-.043.072-.069.042-.208.095-.32.283-.085a.212.212,0,0,0,.334.013.785.785,0,0,0,.2-.7.724.724,0,0,0-.54-.554c-.107-.023-.243.021-.25-.155-.006-.149-.027-.31.1-.419s.2.029.286.09c.145.1.307.12.356-.075.067-.264-.187-.372-.343-.5-.122-.1-.26-.042-.335.109a.278.278,0,0,1-.214.158c-.363.032-.423.333-.532.584-.03.067-.042.126-.123.138a2.7,2.7,0,0,1-.024-1.339c.042-.141-.2-.227-.07-.384.1,0,.205,0,.307,0a.157.157,0,0,0,.141-.081c.047-.09-.038-.114-.088-.153s-.09-.069-.135-.1c.072-.135.086-.3.2-.414.145-.007.283-.019.129-.21l.156-.274c.129-.034.243.26.365.037.093-.171-.051-.232-.2-.253a1.169,1.169,0,0,1,.363-.41c.088.045.06.139.09.208.1.225.384.279.481.077.122-.256.357-.515.127-.832a1.647,1.647,0,0,1,.419-.256c.048.08.1.167.025.25-.139.156-.063.258.066.365a1.766,1.766,0,0,1,.148.181c.058.064.107.165.219.112a.237.237,0,0,0,.153-.21,6.652,6.652,0,0,0,.075-.909,2.673,2.673,0,0,1,1.035-.074c.128.106.083.424.287.365.154-.044.4-.035.48-.259a2.775,2.775,0,0,1,.9.336.57.57,0,0,0,.072.424c.162.2.388.1.617.125-.064.144-.21.241-.094.393s.226.055.349,0c.093-.041.14.02.137.128-.01.454.1.572.546.611" transform="translate(-1245.253 -95.604)" fill="#4d9dda"/>
          <path id="Path_13" data-name="Path 13" d="M.43,131.756c.169-.006.343.03.491-.1a.156.156,0,0,1,.22.007c.058.06.024.131-.012.189a.884.884,0,0,0-.088.5q0,1.152,0,2.3c0,.426-.12.5-.552.34.147-.271-.072-.494-.1-.743-.022-.2-.147-.215-.306-.152a2.624,2.624,0,0,1-.066-1.032c.337.148.4.124.4-.137.005-.34-.227-.084-.335-.139a2.9,2.9,0,0,1,.343-1.033" transform="translate(0 -122.527)" fill="#4d9dda"/>
          <path id="Path_14" data-name="Path 14" d="M1339.538,156.54c.081-.011.094-.07.123-.138.11-.251.169-.553.533-.584a.279.279,0,0,0,.214-.158c.075-.151.213-.212.335-.109.156.131.41.239.343.5-.049.195-.211.175-.356.075-.088-.061-.16-.2-.286-.09s-.1.27-.1.419c.007.176.143.132.25.155a.725.725,0,0,1,.541.554.785.785,0,0,1-.2.7.213.213,0,0,1-.334-.013c-.188-.235-.24-.122-.283.085-.005.027-.047.046-.072.069-.135-.036-.163-.153-.176-.261s-.036-.2-.151-.241c-.066-.025-.144-.084-.121-.147.124-.345-.165-.547-.265-.814" transform="translate(-1247.06 -144.764)" fill="#4c9dda"/>
          <path id="Path_15" data-name="Path 15" d="M1443.38,148.994c-.213-.024-.2-.183-.2-.332,0-.533,0-1.066,0-1.6,0-.367.018-.383.411-.41a3.524,3.524,0,0,1,.07,1.108,2.631,2.631,0,0,1-.287,1.233" transform="translate(-1343.551 -136.529)" fill="#4c9dda"/>
          <path id="Path_16" data-name="Path 16" d="M16.236,104.038a.294.294,0,0,1-.194.353.671.671,0,0,0-.318.251c-.092.13-.185.23-.365.151a.151.151,0,0,0-.206.075c-.074.286-.347.349-.529.514-.14.127-.228.216-.269-.056-.007-.048-.064-.058-.11-.063a3.468,3.468,0,0,1,1.991-1.223" transform="translate(-13.262 -96.856)" fill="#4e9ed9"/>
          <path id="Path_17" data-name="Path 17" d="M1422.878,110.993c-.448-.039-.556-.157-.546-.611,0-.108-.045-.168-.138-.128-.123.054-.223.166-.349,0s.029-.249.094-.393c-.229-.028-.454.077-.617-.125a.571.571,0,0,1-.072-.424,3.435,3.435,0,0,1,1.629,1.683" transform="translate(-1323.124 -101.764)" fill="#4e9ed9"/>
          <path id="Path_18" data-name="Path 18" d="M1372.312,103.98a6.672,6.672,0,0,1-.075.909.237.237,0,0,1-.153.21c-.112.053-.161-.048-.219-.112a1.822,1.822,0,0,0-.148-.181c-.129-.107-.205-.21-.066-.365.074-.083.023-.17-.025-.25a3.274,3.274,0,0,1,.685-.21" transform="translate(-1276.888 -96.802)" fill="#4c9dda"/>
          <path id="Path_19" data-name="Path 19" d="M61.922,106.19c-.134.468-.131.456-.617.327a8.178,8.178,0,0,1-.878-.453.441.441,0,0,1,.484,0c.257.191.3.179.457-.128a1.587,1.587,0,0,1,.555.253" transform="translate(-56.255 -98.623)" fill="#4e9ed9"/>
          <path id="Path_20" data-name="Path 20" d="M1356.813,110.729c.229.317-.005.576-.127.832-.1.2-.381.147-.481-.077-.031-.069,0-.163-.091-.208a2.011,2.011,0,0,1,.7-.546" transform="translate(-1262.492 -103.085)" fill="#4c9dda"/>
          <path id="Path_21" data-name="Path 21" d="M1.226,167.138c.159-.063.285-.051.306.152.026.249.246.472.1.743a.137.137,0,0,0-.137.068,1.507,1.507,0,0,1-.268-.963" transform="translate(-1.141 -155.568)" fill="#4e9ed9"/>
          <path id="Path_22" data-name="Path 22" d="M92.187,118.851a.681.681,0,0,0-.1.019c-.2.07-.425.136-.544-.079-.095-.171.067-.319.192-.442a1.543,1.543,0,0,1,.451.5" transform="translate(-85.197 -110.179)" fill="#4e9ed9"/>
          <path id="Path_23" data-name="Path 23" d="M103,129.254c-.435-.1-.6-.423-.461-.92a2.158,2.158,0,0,1,.461.92" transform="translate(-95.417 -119.474)" fill="#4e9ed9"/>
          <path id="Path_24" data-name="Path 24" d="M1397.988,102.9c-.081.224-.327.214-.48.259-.2.059-.159-.259-.287-.365a2.078,2.078,0,0,1,.767.106" transform="translate(-1300.761 -95.69)" fill="#4c9dda"/>
          <path id="Path_25" data-name="Path 25" d="M9.033,185.749a.187.187,0,0,1,.133-.174c.123-.054.248-.075.323.061.083.151-.082.177-.152.249a.274.274,0,0,1-.219.062c-.035-.063-.1-.116-.085-.2" transform="translate(-8.409 -172.725)" fill="#4d9dda"/>
          <path id="Path_26" data-name="Path 26" d="M.219,148.08c.108.054.34-.2.335.139,0,.262-.067.285-.4.137-.037-.107.063-.18.069-.276" transform="translate(-0.132 -137.819)" fill="#4e9ed9"/>
          <path id="Path_27" data-name="Path 27" d="M83.561,111.51a1.53,1.53,0,0,1-.113.166.167.167,0,0,1-.239.049c-.1-.074-.1-.166-.023-.263.034-.044.061-.094.091-.142a.657.657,0,0,1,.284.189" transform="translate(-77.392 -103.636)" fill="#4e9ed9"/>
          <path id="Path_28" data-name="Path 28" d="M1338.4,140.7c.045.034.091.068.136.1s.134.063.088.153a.157.157,0,0,1-.141.081c-.1,0-.2,0-.307,0,.027-.145.252-.159.225-.34" transform="translate(-1245.795 -130.982)" fill="#4e9ed9"/>
          <path id="Path_29" data-name="Path 29" d="M1348.631,124.574c.149.022.293.082.2.253-.121.223-.236-.072-.365-.037a.476.476,0,0,1,.165-.216" transform="translate(-1255.372 -115.974)" fill="#4e9ed9"/>
          <path id="Path_30" data-name="Path 30" d="M1344.468,131.666c.154.191.015.2-.13.21a.433.433,0,0,1,.13-.21" transform="translate(-1251.529 -122.576)" fill="#4e9ed9"/>
          <path id="Path_31" data-name="Path 31" d="M46.491,107.11c.012.014.034.028.034.042a.04.04,0,0,1-.061.038.056.056,0,0,1-.019-.051c0-.013.03-.019.047-.029" transform="translate(-43.237 -99.715)" fill="#4e9ed9"/>
          <path id="Path_32" data-name="Path 32" d="M521.248,57.714a15.885,15.885,0,0,0-.121-1.8.856.856,0,0,0-.466-.764.579.579,0,0,0-.35-.124,15.014,15.014,0,0,0-2.518.131c-.153.014-.2.107-.243.236-.147.505-.338.59-.81.372-.051-.023-.1-.041-.156-.062a2.876,2.876,0,0,0-.894-.35.748.748,0,0,0-.415-.137c-.069-.113-.184-.044-.275-.07a6.381,6.381,0,0,0-2.348-.26h-.276a1.623,1.623,0,0,0-.391.07,4.389,4.389,0,0,0-1.54.491,1.009,1.009,0,0,0-.552.268c-.048-.014-.064.013-.069.054-.05.02-.125-.011-.146.07l-.129.09c-.152.034-.208.2-.346.253h0a.229.229,0,0,0-.14.131.225.225,0,0,0-.135.147l-.344.344a.069.069,0,0,0-.073.061.454.454,0,0,0-.2.216l0,0c-.078.147-.261.222-.28.408a1.238,1.238,0,0,0-.344.548,4.02,4.02,0,0,0-.625,1.447,3.173,3.173,0,0,0-.278,1.171c-.112.148-.013.326-.068.482-.133.246-.034.507-.05.76v.62q0,.241.006.482a.446.446,0,0,0,.062.413,4.416,4.416,0,0,0,.444,1.775,6.828,6.828,0,0,0,2.7,3.163,5.9,5.9,0,0,0,3.74,1.062,5.538,5.538,0,0,0,1.85-.463,7.05,7.05,0,0,0,1.28-.692c.245-.18.364-.136.511.123a1.624,1.624,0,0,0,.377.463,1.542,1.542,0,0,0,1.3.177,2.927,2.927,0,0,1,1.53.011.266.266,0,0,0,.194,0,.74.74,0,0,0,.555-.758c0-.649-.027-1.3-.057-1.946-.064-1.369.048-2.739.087-4.108.043-1.5.006-3,.011-4.506m-11.864-1.121h0a.1.1,0,0,1-.069.1.1.1,0,0,0,.069-.105m5.652,8.851a3.245,3.245,0,0,1-3.837-2.6,2.728,2.728,0,0,1-.076-.4q0-.343,0-.687a4.338,4.338,0,0,1,.287-1.242.513.513,0,0,0,.14-.274,3.323,3.323,0,0,1,1.584-1.4,2.488,2.488,0,0,0,.624-.18l.411-.02a.141.141,0,0,1,.036-.083.141.141,0,0,0-.036.083,4.47,4.47,0,0,1,1.587.217c.109.12.289.1.4.206.014.033.026.07.075.047l.14.095.2.142a5.31,5.31,0,0,1,.859,1.041c.148.254.148.565.31.813a4.357,4.357,0,0,1,.019,1.514l-.136.551a3.262,3.262,0,0,1-2.6,2.168" transform="translate(-471.664 -51.085)" fill="#d2ecff"/>
          <path id="Path_33" data-name="Path 33" d="M764.522,64.1c-.112-.1-.234-.179-.351-.268a8.851,8.851,0,0,0-1.314-.947,2.247,2.247,0,0,0-.479-.292c-.094-.058-.185-.121-.283-.172a.59.59,0,0,0-.78.1c-.232.18-.315.494-.6.616a.076.076,0,0,0-.068.07,7.606,7.606,0,0,1-1.448.556l-.208.012h-.548l-.346-.015-.622-.191a1.018,1.018,0,0,0-.34-.151,5.612,5.612,0,0,1-1.036-.832.1.1,0,0,0-.02-.06l-.322-.485c-.01-.052,0-.114-.069-.137a6.532,6.532,0,0,1-.343-1.171q0-.408,0-.816c.119-.075.052-.186.054-.284a10.258,10.258,0,0,1,.434-1.168,5.007,5.007,0,0,1,.966-1.032c.052-.007.109,0,.131-.068a1.771,1.771,0,0,0,.558-.276c.259-.007.49-.156.751-.152a2.362,2.362,0,0,1,1.035,0c.217,0,.4.159.617.151a9.217,9.217,0,0,1,1.111.767,1.073,1.073,0,0,0,1.429.038c.377-.286.749-.579,1.123-.869a1.8,1.8,0,0,0,.828-.62c.266-.314.115-.584-.09-.848a2.852,2.852,0,0,0-.625-.62,3.2,3.2,0,0,0-.6-.472.256.256,0,0,0-.206-.139c-.053-.122-.186-.134-.278-.2-.024-.061-.08-.062-.132-.07-.012-.019-.02-.044-.037-.055a5.96,5.96,0,0,0-4.253-.886c-.2.031-.433-.03-.618.11l-.2.019c-.109-.043-.193.045-.287.067a5.323,5.323,0,0,0-1.372.465,1.711,1.711,0,0,0-.552.275,1.754,1.754,0,0,0-.624.349l-.2.137c-.1.109-.267.136-.346.272l-.827.828c-.165.1-.22.284-.337.42a.7.7,0,0,0-.222.477c-.061.063-.191.063-.177.194-.084.02-.076.093-.09.153a3.115,3.115,0,0,0-.489,1.1,5.58,5.58,0,0,0-.334,1.412,6.487,6.487,0,0,0,.261,3.165,7.29,7.29,0,0,0,1.848,3.008,6.694,6.694,0,0,0,1.748,1.29,7.361,7.361,0,0,0,4.164.779,7.727,7.727,0,0,0,2.385-.671,8.918,8.918,0,0,0,2.707-2.156.446.446,0,0,0-.07-.7m-6.369-10.376c.055.008.072.055.076.108,0-.054-.022-.1-.076-.108m-4.979,4.4c-.008-.018-.012-.044-.026-.05.013.006.017.032.026.05h0m4.276,5.849a.341.341,0,0,0-.02-.04.356.356,0,0,1,.02.04h0m3.682-.6a.351.351,0,0,0-.037.024.374.374,0,0,1,.037-.024h0" transform="translate(-699.514 -49.369)" fill="#d2ecff"/>
          <path id="Path_34" data-name="Path 34" d="M384.747,57.8c-.037-.1.075-.156.054-.279-.107-.621-.5-.758-1.036-.658-.289.054-.56-.011-.833.042-.1.02-.228-.056-.315.061l-.2.024a3.609,3.609,0,0,0-.968.349c-.048-.024-.06.009-.073.043l-.545.361c-.261.058-.392.35-.667.393-.068-.212.051-.434-.1-.611q-.058-.571-.747-.54H377.1a.808.808,0,0,0-.838.768,5.071,5.071,0,0,0,0,1.14c.021.515-.01,1.032.008,1.547.06,1.718.037,3.436.018,5.153q-.023,1.992-.009,3.983c.032.185.051.374.1.555a.809.809,0,0,0,.647.589,3.645,3.645,0,0,0,.84.1c.458-.026.918-.016,1.377,0a.841.841,0,0,0,.619-.207.725.725,0,0,0,.34-.689c-.009-.8.008-1.593-.061-2.391a24.652,24.652,0,0,1,.066-2.733c.005-.22-.123-.419-.072-.637A7.9,7.9,0,0,1,380.694,62c.01,0,.025-.006.03-.014a2.145,2.145,0,0,1,1.769-1.139c.02,0,.039-.021.059-.032l.686.02c.147.168.278-.019.417-.019a.867.867,0,0,0,.692-.19c.36-.129.4-.455.47-.763.056-.691-.1-1.375-.069-2.066m-1.51,2.731a.3.3,0,0,1,.011.072.3.3,0,0,0-.011-.072" transform="translate(-350.255 -52.91)" fill="#d2ecff"/>
          <path id="Path_35" data-name="Path 35" d="M1117.925,60.265q0-.207,0-.413c.058-.282-.088-.547-.07-.826a3.394,3.394,0,0,0-.206-.758c.04-.09-.041-.14-.069-.207a5.954,5.954,0,0,0-1.021-2l-.121-.181a.564.564,0,0,0-.223-.233.069.069,0,0,0-.064-.064.22.22,0,0,0-.143-.212.96.96,0,0,0-.276-.276l-.624-.541a1.312,1.312,0,0,0-.414-.265c-.1-.041-.143-.172-.272-.157a3.031,3.031,0,0,0-.895-.477c-.012-.034-.029-.062-.073-.053l-.137-.022a4.861,4.861,0,0,0-1.286-.407c-.418-.1-.852-.033-1.27-.125l-.617,0a6.862,6.862,0,0,0-2.626.671c-.086-.01-.142.05-.206.09s-.164.037-.207.121a.2.2,0,0,0-.195.109c-.041.047-.141,0-.151.1-.05.019-.125-.011-.145.069l-.133.09c-.047-.021-.059.011-.071.045a4.869,4.869,0,0,0-.964.823.268.268,0,0,0-.137.14c0,.01.01.02.016.031a.352.352,0,0,1,.031.061.352.352,0,0,0-.031-.061c-.006-.01-.012-.021-.016-.031a1,1,0,0,0-.343.418.343.343,0,0,0-.21.274.37.37,0,0,0-.19.208.121.121,0,0,0-.016.063c-.169.089-.162.294-.278.417l-.345.689c-.095.1-.075.236-.134.346-.041,0-.068.018-.053.066q-.01.069-.02.138a.835.835,0,0,0-.142.481c-.019.025-.049.047-.056.075a8.415,8.415,0,0,0-.212,2.413,3.724,3.724,0,0,0,.15.889,6.085,6.085,0,0,0,1.091,2.621l.136.2a6.674,6.674,0,0,0,1.8,1.792c.115.069.2.193.343.212a3.972,3.972,0,0,0,.418.264,7.467,7.467,0,0,0,2.276.75l.209,0,.032.007.033-.007c.218.15.459.066.692.072h.138a1.773,1.773,0,0,0,.83-.069l.2-.007.073.007a3.841,3.841,0,0,0,1.035-.276,3.146,3.146,0,0,0,.9-.329c.051-.01.116.007.137-.066a1.173,1.173,0,0,0,.486-.279.2.2,0,0,0,.2-.132c.15-.014.23-.139.343-.213a.821.821,0,0,0,.351-.275,2.067,2.067,0,0,0,.622-.55,1.531,1.531,0,0,0,.4-.42,4.909,4.909,0,0,0,.9-1.371,2.031,2.031,0,0,0,.345-.76,1.653,1.653,0,0,0,.192-.621l.069-.207q.069-.482.138-.964c.017-.113.126-.221.02-.342.122-.175.04-.368.049-.553m-10.889-5.716c0-.026,0-.051,0-.076s0-.025,0-.038c0,.012,0,.025,0,.038s0,.051,0,.076m-.911,2.247c-.021-.256.137-.357.359-.388.094-.1.08-.373.25-.292-.125-.06-.15.075-.145.285-.114,0-.145.08-.157.162-.223-.082-.325.023-.308.232m.3-.127a.236.236,0,0,0,.016.121.23.23,0,0,1-.016-.121m6.572,6.759c.009.016.016.043.028.046-.013,0-.019-.03-.029-.046h0m-5.545-9.568a.259.259,0,0,0,.018.088.259.259,0,0,1-.018-.088m3.795,9.914-.275.014c-.21-.026-.406.119-.619.05-.33-.127-.691-.138-1.018-.283a3.84,3.84,0,0,1-1.6-1.365.3.3,0,0,0-.02-.066,5.391,5.391,0,0,1-.413-1.171,2.842,2.842,0,0,1,0-1.169q.007-.1.014-.207c.085-.05.073-.129.063-.207q0-.065.006-.129c.037-.012.07-.027.058-.076a.772.772,0,0,0,.151-.4.626.626,0,0,0,.212-.538.263.263,0,0,0,.238-.1,4.024,4.024,0,0,1,1.064-.889.572.572,0,0,0,.282-.123,4.633,4.633,0,0,1,2.063-.1l.071,0c.066.031.113.118.205.067l.133.027a4.361,4.361,0,0,1,1.246.816l.185.213a.187.187,0,0,0,.1.129c.048.1.075.221.183.286l.03.061a.085.085,0,0,0,.051.091c.095.144.012.369.211.465a2.492,2.492,0,0,1,.084,1.577c0,.046.005.092.008.138.027.171-.109.31-.1.479a.5.5,0,0,0-.109.348,5.9,5.9,0,0,1-.481.811.154.154,0,0,0-.068.132.849.849,0,0,0-.322.326l-.12.064c-.043-.017-.054,0-.048.042-.089.135-.3.107-.365.272a4.5,4.5,0,0,1-1.041.377l-.06.039" transform="translate(-1027.135 -49.384)" fill="#d2ecff"/>
          <path id="Path_36" data-name="Path 36" d="M153.348,59.36a1.347,1.347,0,0,0-.138-.482,7.284,7.284,0,0,0-1.04-2.2l-.257-.348L151.8,56.2l-.114-.145a.249.249,0,0,0-.134-.162l-.122-.114a1.156,1.156,0,0,0-.353-.341,4.564,4.564,0,0,0-.886-.629c-.021-.071-.087-.057-.137-.07-.128-.089-.236-.217-.414-.206a.412.412,0,0,0-.271-.133.39.39,0,0,0-.259-.134c-.416-.055-.8-.242-1.22-.3a18.513,18.513,0,0,0-2-.038c-.037,0-.075.045-.113.069-.174-.06-.318.071-.483.073l-.205.064a1.531,1.531,0,0,0-.556.188,3.09,3.09,0,0,0-1.005.491c-.272.221-.519.2-.694-.09a1.1,1.1,0,0,0-.851-.521,5.516,5.516,0,0,0-.951.04,2.766,2.766,0,0,1-.951-.01c-.7-.126-1.087.152-1.119.854-.022.735-.028,1.469,0,2.2,0,1.236-.007,2.473-.007,3.709q0,5.2.007,10.408c-.005.225-.1.47.153.636.064.041.053.135.032.19-.069.183.045.276.15.392a.975.975,0,0,0,.685.279A10.763,10.763,0,0,0,141.9,73a.456.456,0,0,0,.35-.081.634.634,0,0,0,.623-.672c.12-.084.055-.209.065-.315.046-.5-.083-.992-.074-1.495.019-1.074,0-2.148,0-3.222a.152.152,0,0,0,.014-.061.84.84,0,0,1,.472.133.192.192,0,0,0,.088.131,7.949,7.949,0,0,0,1.326.686,1.566,1.566,0,0,0,.731.22.932.932,0,0,0,.485.12h.2a16.347,16.347,0,0,0,1.656.006,6.937,6.937,0,0,0,2.713-1.177l.254-.2a6.073,6.073,0,0,0,1.588-1.785.416.416,0,0,0,.141-.269,5.18,5.18,0,0,0,.75-1.783,3.493,3.493,0,0,0,.2-1.253.969.969,0,0,0,.082-.488,7.936,7.936,0,0,0-.082-1.44l-.138-.689m-6.129-1.653a.2.2,0,0,0-.056.007.115.115,0,0,0-.043.022.115.115,0,0,1,.043-.022.2.2,0,0,1,.056-.007m2.839,4.859h0c-.055,0-.076.034-.1.069.022-.035.043-.072.1-.069m-5.044-4.65-.14,0a2.289,2.289,0,0,0-.356-.105,2.289,2.289,0,0,1,.356.105Zm-.8-3.125a.367.367,0,0,1,.04-.02h0a.366.366,0,0,0-.04.02m1.9,9.883a.069.069,0,0,0-.066,0,2.922,2.922,0,0,0-.758-.155c-.027-.069-.082-.065-.14-.052a1.076,1.076,0,0,0-.345-.148,5.189,5.189,0,0,1-.926-.641,1.859,1.859,0,0,0-.377-.4,7.383,7.383,0,0,1-.571-1.169l-.009-.136a3.793,3.793,0,0,1-.129-1.033l.14-.689c.024-.138.118-.261.087-.411.112-.14.27-.266.147-.479.154.005.206-.115.267-.22a2.736,2.736,0,0,1,1.44-1.169.134.134,0,0,0,.141-.06l.273-.082.034.006.033-.008a5.724,5.724,0,0,1,1.726,0l.129.023c.012.036.031.06.075.044l.136.028c.178.093.356.184.532.278a4.2,4.2,0,0,1,1.28,1.289.134.134,0,0,0,.052.143.416.416,0,0,0,.126.281c.025.138-.023.293.1.407-.053.193.079.363.065.551q0,.379,0,.758a.3.3,0,0,1,.117.04.3.3,0,0,0-.117-.04,6.53,6.53,0,0,1-.478,1.3,3.36,3.36,0,0,1-2.639,1.673c-.105.074-.231.046-.346.068" transform="translate(-129.343 -50.2)" fill="#d2ecff"/>
          <path id="Path_37" data-name="Path 37" d="M971.837,4.075a8.039,8.039,0,0,0-1.081-.058,2.124,2.124,0,0,1-1.123-.1c-.107-.1-.146-.26-.277-.344a8.608,8.608,0,0,1-.083-1.3,2.5,2.5,0,0,0-.055-.972,2.053,2.053,0,0,0-.006-.308c-.053-.322-.113-.644-.48-.773A.141.141,0,0,0,968.668.2c-.025-.02-.048-.055-.075-.059A8.345,8.345,0,0,0,966.8.012c-.228,0-.457-.019-.682,0a.722.722,0,0,0-.753.815.636.636,0,0,0-.071.513,4.019,4.019,0,0,1,.07.657V3.1a7.044,7.044,0,0,0,.015,1.1,7.148,7.148,0,0,0,0,1.034q0,.686-.007,1.371V7.639a.335.335,0,0,0,0,.218c-.044.562.017,1.125.011,1.687a8.138,8.138,0,0,0-.023,1.067,5.829,5.829,0,0,1,.008.9,12.324,12.324,0,0,0,.273,3.781c-.009.046.015.063.057.065l.084.278a3.752,3.752,0,0,0,1.571,1.709,5.526,5.526,0,0,0,2.38.624,13,13,0,0,0,2.26-.061,8.28,8.28,0,0,0,1.1-.157.857.857,0,0,0,.7-.684,3.549,3.549,0,0,0-.029-.8c.008-.516,0-1.033,0-1.549,0-.37-.1-.485-.461-.527a1.561,1.561,0,0,0-.379,0,15.861,15.861,0,0,1-1.974.133,1.466,1.466,0,0,1-1.476-.76c.027-.165-.182-.275-.153-.385a3.717,3.717,0,0,0-.045-1c.007-.914-.009-1.828.007-2.741a3.471,3.471,0,0,1,.25-1.311.985.985,0,0,1,.369-.412,3.8,3.8,0,0,1,.932-.142c.7.006,1.4-.005,2.1-.01.484-.023.865-.323.83-.739.034-.012.062-.029.052-.073s0-.093,0-.14c.047-.219.022-.443.052-.667a2.219,2.219,0,0,0-.179-1.465,1.706,1.706,0,0,0-1.862-.4" transform="translate(-898.628 0)" fill="#d2ecff"/>
        </g>
      </g>
    </g>
  </g>
</svg>
